<?xml version="1.0" encoding="UTF-8"?>
<svg width="25px" height="20px" viewBox="0 0 25 20" version="1.1" xmlns="http://www.w3.org/2000/svg" xmlns:xlink="http://www.w3.org/1999/xlink">
    <!-- Generator: Sketch 48.2 (47327) - http://www.bohemiancoding.com/sketch -->
    <title>分享海报-给朋友</title>
    <desc>Created with Sketch.</desc>
    <defs></defs>
    <g id="0306第二期" stroke="none" stroke-width="1" fill="none" fill-rule="evenodd">
        <g id="分享海报-给朋友" transform="translate(1.000000, 1.000000)">
            <path d="M15.7949829,5.44958496 C13.3737004,5.44958496 11.0706988,6.63208345 9.75409203,8.39864639 C9.08472778,9.29676879 8.70155039,10.3115751 8.70155039,11.2772217 C8.70127903,11.3564161 8.70127903,11.3564161 8.70050187,11.4414433 C8.6961199,11.9347176 8.70847815,12.2232916 8.76576265,12.5464586 C8.82430912,12.8767451 8.9770114,13.3203091 9.05059012,13.4557911 L9.42098559,14.1378077 L8.64685543,14.1931431 C8.52449671,14.2018893 8.45848859,14.2036125 8.38581511,14.2001737 C8.35758369,14.1986823 8.35758369,14.1986823 8.33530327,14.1974147 C8.29783915,14.1954127 8.26084659,14.1944155 8.20155039,14.1944155 C7.3517894,14.1944155 6.51785323,14.0916292 5.71857488,13.8913421 C5.63946805,13.8715191 5.58482117,13.8523363 5.47585728,13.8102205 C5.47051708,13.8081563 5.47051708,13.8081563 5.46530962,13.8061448 C5.37240133,13.7702703 5.34143554,13.761737 5.32597011,13.761737 C5.25655349,13.761737 5.16459456,13.7973023 4.96189821,13.9262369 C4.81508962,14.0196215 4.68246064,14.1125156 4.37765938,14.3319471 C4.37726286,14.3322325 4.37726286,14.3322325 4.37686632,14.332518 C3.25748201,15.1383816 3.05551379,15.2553638 2.60193373,15.0316688 C2.20032605,14.8336053 2.21210535,14.5879866 2.34931007,14.072495 C2.39973713,13.8830356 2.45851192,13.7080724 2.60240418,13.302001 C2.60286265,13.3007072 2.60286265,13.3007072 2.60332104,13.2994135 C2.73274018,12.9341885 2.7840593,12.7825824 2.82607368,12.6316548 C2.82688841,12.6287281 2.8257195,12.6256102 2.82308225,12.623875 C2.74894344,12.5750719 2.68743392,12.5335289 2.63781614,12.498684 C0.668464445,11.1156751 -0.5,9.06611929 -0.5,6.84720777 C-0.5,2.76747789 3.41376827,-0.5 8.20155039,-0.5 C11.8446737,-0.5 15.0752218,1.40655686 16.3456531,4.25213735 C16.4308102,4.44287663 16.4925682,4.64622517 16.5311474,4.86131024 L16.6366644,5.44958496 L16.0390015,5.44958496 C15.9155311,5.44958496 15.9155311,5.44958496 15.7949829,5.44958496 Z" id="Combined-Shape" stroke="#282828" stroke-linecap="round" stroke-linejoin="round"></path>
            <circle id="Combined-Shape" fill="#282828" cx="5" cy="4" r="1"></circle>
            <circle id="Combined-Shape" fill="#282828" cx="11" cy="4" r="1"></circle>
            <circle id="Combined-Shape" fill="#282828" cx="14" cy="10" r="1"></circle>
            <circle id="Combined-Shape" fill="#282828" cx="19" cy="10" r="1"></circle>
            <path d="M20.6119425,16.350244 C20.6422383,16.455413 20.69097,16.5888007 20.787342,16.8387045 C20.7879054,16.8401654 20.7879054,16.8401654 20.788469,16.8416269 C20.9287935,17.2054997 20.9822254,17.3561361 21.0246465,17.5356298 C21.1241805,17.9567828 21.0839218,18.2977722 20.6673886,18.4612979 C20.388931,18.5706169 20.2248031,18.499068 19.8346521,18.2592892 C19.6662166,18.1557722 19.5101619,18.0497123 19.1598543,17.8052667 C19.1583194,17.8041957 19.1583194,17.8041957 19.1567848,17.8031248 C18.8181091,17.5667938 18.6799347,17.47262 18.5359425,17.3833065 C18.4862634,17.3524922 18.4433924,17.327357 18.4083907,17.3083143 C17.6670704,17.5081411 16.8873725,17.6111569 16.0910853,17.6111569 C12.0198932,17.6111569 8.68217054,14.913367 8.68217054,11.5268703 C8.68217054,8.14037357 12.0198932,5.44258373 16.0910853,5.44258373 C20.1622773,5.44258373 23.5,8.14037357 23.5,11.5268703 C23.5,13.4517152 22.410089,15.2136917 20.6119425,16.350244 Z" id="wechat-copy" stroke="#282828" stroke-linecap="round" stroke-linejoin="round"></path>
        </g>
    </g>
</svg>